# Blender 3.4.1
# www.blender.org
mtllib gem_object_1.mtl
o dobj
v 1.610843 0.072287 -0.000000
v 1.488225 0.072287 0.616443
v 1.139038 0.072287 1.139038
v 0.616443 0.072287 1.488225
v -0.000000 0.072287 1.610843
v -0.616443 0.072287 1.488225
v -1.139038 0.072287 1.139038
v -1.488225 0.072287 0.616443
v -1.610843 0.072287 -0.000000
v -1.488225 0.072287 -0.616443
v -1.139038 0.072288 -1.139038
v -0.616443 0.072288 -1.488225
v 0.000000 0.072288 -1.610843
v 0.616443 0.072288 -1.488225
v 1.139038 0.072288 -1.139038
v 1.488225 0.072287 -0.616443
v 1.458785 -0.488036 -0.000000
v 1.347742 -0.488037 0.558253
v 1.031517 -0.488037 1.031517
v 0.558253 -0.488037 1.347742
v -0.000000 -0.488037 1.458785
v -0.558253 -0.488037 1.347742
v -1.031517 -0.488037 1.031517
v -1.347742 -0.488037 0.558253
v -1.458785 -0.488036 -0.000000
v -1.347742 -0.488036 -0.558253
v -1.031517 -0.488036 -1.031517
v -0.558253 -0.488036 -1.347742
v 0.000000 -0.488036 -1.458785
v 0.558253 -0.488036 -1.347742
v 1.031517 -0.488036 -1.031517
v 1.347742 -0.488036 -0.558253
v 0.944564 -0.877199 0.391251
v 0.391251 -0.877199 0.944563
v -0.391251 -0.877199 0.944564
v -0.944564 -0.877199 0.391251
v -0.944564 -0.877198 -0.391251
v -0.391251 -0.877198 -0.944564
v 0.391251 -0.877198 -0.944564
v 0.944564 -0.877198 -0.391251
v 0.370275 -1.232871 -0.000000
v 0.287415 -1.251024 0.284957
v 0.002458 -1.257798 0.402990
v -0.282499 -1.251465 0.284957
v -0.343948 -1.246634 -0.000000
v -0.282499 -1.248867 -0.284957
v 0.002458 -1.257798 -0.402990
v 0.287415 -1.248426 -0.284957
v 0.908435 1.488202 0.376287
v 0.376286 1.488202 0.908435
v -0.376286 1.488202 0.908435
v -0.908435 1.488202 0.376287
v -0.908435 1.488203 -0.376285
v -0.376286 1.488203 -0.908434
v 0.376286 1.488203 -0.908434
v 0.908435 1.488203 -0.376285
v 0.000000 2.769395 0.000001
v 1.381558 0.780245 0.152173
v 0.869307 0.780245 1.084512
v -0.152173 0.780244 1.381558
v -1.084512 0.780245 0.869307
v -1.381558 0.780245 -0.152173
v -0.869307 0.780245 -1.084511
v 0.152173 0.780245 -1.381558
v 1.381558 0.780245 -0.152173
v 1.304358 0.780245 -0.540283
v 1.084512 0.780245 0.869307
v 1.304358 0.780245 0.540283
v 0.540283 0.780244 1.304359
v -0.540283 0.780244 1.304359
v -1.304358 0.780245 0.540283
v -1.304358 0.780245 -0.540283
v -0.540283 0.780245 -1.304358
v 0.540283 0.780245 -1.304358
v -1.381558 0.780245 0.152173
v -1.084512 0.780245 -0.869306
v -0.152173 0.780245 -1.381558
v 0.152173 0.780244 1.381558
v 0.869307 0.780245 -1.084512
v 1.084512 0.780245 -0.869306
v -0.869307 0.780245 1.084512
v 0.726748 1.744441 0.301030
v 0.545061 2.000679 0.225772
v 0.363374 2.256918 0.150515
v 0.181687 2.513156 0.075258
v -0.301029 1.744441 0.726749
v -0.225772 2.000679 0.545062
v -0.150514 2.256918 0.363375
v -0.075257 2.513156 0.181688
v -0.726748 1.744441 -0.301028
v -0.545061 2.000679 -0.225771
v -0.363374 2.256918 -0.150514
v -0.181687 2.513156 -0.075256
v 0.301029 1.744441 -0.726747
v 0.225772 2.000680 -0.545060
v 0.150514 2.256918 -0.363373
v 0.075257 2.513156 -0.181686
v 0.726748 1.744441 -0.301028
v 0.545061 2.000679 -0.225771
v 0.363374 2.256918 -0.150514
v 0.181687 2.513156 -0.075256
v 0.301029 1.744441 0.726748
v 0.225772 2.000679 0.545062
v 0.150514 2.256918 0.363375
v 0.075257 2.513156 0.181688
v -0.726748 1.744441 0.301030
v -0.545061 2.000679 0.225772
v -0.363374 2.256918 0.150515
v -0.181687 2.513156 0.075258
v -0.301029 1.744441 -0.726747
v -0.225772 2.000680 -0.545060
v -0.150514 2.256918 -0.363373
v -0.075257 2.513156 -0.181686
vn 0.9478 -0.2572 0.1885
vn 0.8035 -0.2572 0.5369
vn 0.5369 -0.2572 0.8035
vn 0.1885 -0.2572 0.9478
vn -0.1885 -0.2572 0.9478
vn -0.5369 -0.2572 0.8035
vn -0.8035 -0.2572 0.5369
vn -0.9478 -0.2572 0.1885
vn -0.9478 -0.2572 -0.1885
vn -0.8035 -0.2572 -0.5369
vn -0.5369 -0.2572 -0.8035
vn -0.1885 -0.2572 -0.9478
vn 0.1885 -0.2572 -0.9478
vn 0.5369 -0.2572 -0.8035
vn 0.8035 -0.2572 -0.5369
vn 0.9478 -0.2572 -0.1885
vn 0.6598 -0.7399 -0.1312
vn 0.5594 -0.7399 -0.3737
vn 0.5594 -0.7399 0.3737
vn 0.6598 -0.7399 0.1312
vn 0.1312 -0.7399 0.6598
vn 0.3737 -0.7399 0.5594
vn -0.3737 -0.7399 0.5594
vn -0.1312 -0.7399 0.6598
vn -0.6598 -0.7399 0.1312
vn -0.5594 -0.7399 0.3737
vn -0.5594 -0.7399 -0.3737
vn -0.6598 -0.7399 -0.1312
vn -0.1312 -0.7399 -0.6598
vn -0.3737 -0.7399 -0.5594
vn 0.3737 -0.7399 -0.5594
vn 0.1312 -0.7399 -0.6598
vn 0.4823 -0.8719 0.0847
vn 0.4146 -0.8100 0.4146
vn 0.2098 -0.8644 0.4569
vn -0.0000 -0.8080 0.5891
vn -0.2083 -0.8650 0.4565
vn -0.4139 -0.8108 0.4139
vn -0.4794 -0.8731 0.0886
vn -0.5626 -0.8268 -0.0000
vn -0.4755 -0.8745 -0.0957
vn -0.4130 -0.8118 -0.4130
vn -0.2145 -0.8656 -0.4524
vn -0.0000 -0.8080 -0.5891
vn 0.2160 -0.8650 -0.4528
vn 0.4137 -0.8110 -0.4137
vn 0.4785 -0.8733 -0.0915
vn 0.5647 -0.8253 -0.0000
vn 0.0095 -1.0000 -0.0021
vn 0.8434 0.5105 0.1678
vn 0.8434 0.5105 -0.1678
vn 0.4777 0.5105 0.7150
vn 0.7150 0.5105 0.4777
vn -0.1678 0.5105 0.8434
vn 0.1678 0.5105 0.8434
vn -0.7150 0.5105 0.4777
vn -0.4777 0.5105 0.7150
vn -0.8434 0.5105 -0.1678
vn -0.8434 0.5105 0.1678
vn -0.4777 0.5105 -0.7150
vn -0.7150 0.5105 -0.4777
vn 0.1678 0.5105 -0.8434
vn -0.1678 0.5105 -0.8434
vn 0.7150 0.5105 -0.4777
vn 0.4777 0.5105 -0.7150
vn 0.8157 0.5784 -0.0000
vn 0.5768 0.5784 0.5768
vn -0.0000 0.5784 0.8157
vn -0.5768 0.5784 0.5768
vn -0.8157 0.5784 -0.0000
vn -0.5768 0.5784 -0.5768
vn -0.0000 0.5784 -0.8157
vn 0.5768 0.5784 -0.5768
vn 0.6727 0.3081 -0.6727
vn -0.0000 0.3081 -0.9513
vn -0.6727 0.3081 -0.6727
vn -0.9514 0.3081 -0.0000
vn -0.6727 0.3081 0.6727
vn -0.0000 0.3081 0.9514
vn 0.6727 0.3081 0.6727
vn 0.9513 0.3081 -0.0000
vn 0.5356 0.2658 -0.8016
vn 0.8016 0.2658 -0.5356
vn -0.1881 0.2658 -0.9455
vn 0.1881 0.2658 -0.9455
vn -0.8016 0.2658 -0.5356
vn -0.5356 0.2658 -0.8016
vn -0.9455 0.2658 0.1881
vn -0.9455 0.2658 -0.1881
vn -0.5356 0.2658 0.8016
vn -0.8016 0.2658 0.5356
vn 0.1881 0.2658 0.9455
vn -0.1881 0.2658 0.9455
vn 0.8016 0.2658 0.5356
vn 0.5356 0.2658 0.8016
vn 0.9455 0.2658 -0.1881
vn 0.9455 0.2658 0.1881
vn 0.5879 0.5556 0.5879
vn 0.8314 0.5556 -0.0000
vn 0.5879 0.5556 -0.5879
vn -0.0000 0.5556 -0.8314
vn -0.5879 0.5556 -0.5879
vn -0.8314 0.5556 -0.0000
vn -0.5879 0.5556 0.5879
vn -0.0000 0.5556 0.8314
s 0
f 1//1 2//1 18//1 17//1
f 2//2 3//2 19//2 18//2
f 3//3 4//3 20//3 19//3
f 4//4 5//4 21//4 20//4
f 5//5 6//5 22//5 21//5
f 6//6 7//6 23//6 22//6
f 7//7 8//7 24//7 23//7
f 8//8 9//8 25//8 24//8
f 9//9 10//9 26//9 25//9
f 10//10 11//10 27//10 26//10
f 11//11 12//11 28//11 27//11
f 12//12 13//12 29//12 28//12
f 13//13 14//13 30//13 29//13
f 14//14 15//14 31//14 30//14
f 15//15 16//15 32//15 31//15
f 16//16 1//16 17//16 32//16
f 17//17 40//17 32//17
f 32//18 40//18 31//18
f 18//19 19//19 33//19
f 18//20 33//20 17//20
f 20//21 21//21 34//21
f 20//22 34//22 19//22
f 22//23 23//23 35//23
f 22//24 35//24 21//24
f 24//25 25//25 36//25
f 24//26 36//26 23//26
f 26//27 27//27 37//27
f 26//28 37//28 25//28
f 28//29 29//29 38//29
f 28//30 38//30 27//30
f 30//31 31//31 39//31
f 30//32 39//32 29//32
f 41//33 33//33 42//33
f 42//34 33//34 19//34 34//34
f 42//35 34//35 43//35
f 43//36 34//36 21//36 35//36
f 43//37 35//37 44//37
f 44//38 35//38 23//38 36//38
f 44//39 36//39 45//39
f 45//40 36//40 25//40 37//40
f 45//41 37//41 46//41
f 46//42 37//42 27//42 38//42
f 46//43 38//43 47//43
f 47//44 38//44 29//44 39//44
f 47//45 39//45 48//45
f 48//46 39//46 31//46 40//46
f 48//47 40//47 41//47
f 17//48 33//48 41//48 40//48
f 41//49 42//49 43//49 44//49 45//49 46//49 47//49 48//49
f 58//50 49//50 68//50
f 65//51 66//51 56//51
f 59//52 50//52 69//52
f 67//53 68//53 49//53
f 60//54 51//54 70//54
f 78//55 69//55 50//55
f 61//56 52//56 71//56
f 81//57 70//57 51//57
f 62//58 53//58 72//58
f 75//59 71//59 52//59
f 63//60 54//60 73//60
f 76//61 72//61 53//61
f 64//62 55//62 74//62
f 77//63 73//63 54//63
f 80//64 56//64 66//64
f 79//65 74//65 55//65
f 85//66 101//66 57//66
f 105//67 85//67 57//67
f 89//68 105//68 57//68
f 109//69 89//69 57//69
f 93//70 109//70 57//70
f 113//71 93//71 57//71
f 97//72 113//72 57//72
f 101//73 97//73 57//73
f 15//74 79//74 80//74
f 13//75 77//75 64//75
f 11//76 76//76 63//76
f 9//77 75//77 62//77
f 7//78 81//78 61//78
f 5//79 78//79 60//79
f 3//80 67//80 59//80
f 1//81 65//81 58//81
f 15//82 14//82 74//82 79//82
f 15//83 80//83 66//83 16//83
f 13//84 12//84 73//84 77//84
f 13//85 64//85 74//85 14//85
f 11//86 10//86 72//86 76//86
f 11//87 63//87 73//87 12//87
f 9//88 8//88 71//88 75//88
f 9//89 62//89 72//89 10//89
f 7//90 6//90 70//90 81//90
f 7//91 61//91 71//91 8//91
f 5//92 4//92 69//92 78//92
f 5//93 60//93 70//93 6//93
f 3//94 2//94 68//94 67//94
f 3//95 59//95 69//95 4//95
f 1//96 16//96 66//96 65//96
f 1//97 58//97 68//97 2//97
f 55//73 94//73 98//73 56//73
f 98//73 94//73 95//73 99//73
f 99//73 95//73 96//73 100//73
f 100//73 96//73 97//73 101//73
f 54//72 110//72 94//72 55//72
f 94//72 110//72 111//72 95//72
f 95//72 111//72 112//72 96//72
f 96//72 112//72 113//72 97//72
f 53//71 90//71 110//71 54//71
f 110//71 90//71 91//71 111//71
f 111//71 91//71 92//71 112//71
f 112//71 92//71 93//71 113//71
f 52//70 106//70 90//70 53//70
f 90//70 106//70 107//70 91//70
f 91//70 107//70 108//70 92//70
f 92//70 108//70 109//70 93//70
f 51//69 86//69 106//69 52//69
f 106//69 86//69 87//69 107//69
f 107//69 87//69 88//69 108//69
f 108//69 88//69 89//69 109//69
f 50//68 102//68 86//68 51//68
f 86//68 102//68 103//68 87//68
f 87//68 103//68 104//68 88//68
f 88//68 104//68 105//68 89//68
f 49//67 82//67 102//67 50//67
f 102//67 82//67 83//67 103//67
f 103//67 83//67 84//67 104//67
f 104//67 84//67 85//67 105//67
f 56//66 98//66 82//66 49//66
f 82//66 98//66 99//66 83//66
f 83//66 99//66 100//66 84//66
f 84//66 100//66 101//66 85//66
f 67//98 49//98 50//98 59//98
f 65//99 56//99 49//99 58//99
f 79//100 55//100 56//100 80//100
f 77//101 54//101 55//101 64//101
f 76//102 53//102 54//102 63//102
f 75//103 52//103 53//103 62//103
f 81//104 51//104 52//104 61//104
f 78//105 50//105 51//105 60//105
